<?xml version="1.0" encoding="utf-8"?>
<!-- Generator: Adobe Illustrator 22.1.0, SVG Export Plug-In . SVG Version: 6.00 Build 0)  -->
<svg version="1.1" id="Layer_1" xmlns="http://www.w3.org/2000/svg" xmlns:xlink="http://www.w3.org/1999/xlink" x="0px" y="0px"
	 viewBox="0 0 935.4 935.4" style="enable-background:new 0 0 935.4 935.4;" xml:space="preserve">
<style type="text/css">
	.st0{clip-path:url(#SVGID_2_);fill:#191D2D;}
	
		.st1{opacity:0.2;clip-path:url(#SVGID_2_);fill:none;stroke:#234C8D;stroke-width:1.6463;stroke-linejoin:round;stroke-miterlimit:10;}
	.st2{clip-path:url(#SVGID_2_);}
	.st3{opacity:0.2;fill:none;stroke:#234C8D;stroke-width:1.6463;stroke-linejoin:round;stroke-miterlimit:10;}
	.st4{fill:#F2E590;}
	.st5{clip-path:url(#SVGID_2_);fill:#F2E590;}
	.st6{fill:#191D2D;}
	.st7{fill:#FCF9E5;}
	.st8{fill:#234C8D;}
	.st9{fill:none;stroke:#234C8D;stroke-width:2.5034;stroke-linecap:round;stroke-linejoin:round;stroke-miterlimit:10;}
	.st10{fill:#234C8D;stroke:#234C8D;stroke-width:2.0303;stroke-linecap:round;stroke-linejoin:round;stroke-miterlimit:10;}
	.st11{fill:#C60C0E;}
	.st12{font-family:'Saira-Medium';}
	.st13{font-size:37.7512px;}
</style>
<g>
	<defs>
		<rect id="SVGID_1_" x="0" width="935.4" height="935.4"/>
	</defs>
	<clipPath id="SVGID_2_">
		<use xlink:href="#SVGID_1_"  style="overflow:visible;"/>
	</clipPath>
	<polygon class="st0" points="1111.7,111.1 1111.7,110.6 1069.1,110.6 1069.1,108.4 1062.4,108.4 1056.1,105.8 1055.1,108.4 
		999.6,108.4 998.8,105.2 998.8,-14.2 998.3,-14.2 998.3,-14.7 950,-14.7 950,-51 949.5,-51 949.5,-51.5 -18.8,-51.5 -18.8,-51 
		-19.3,-51 -19.3,-14.7 -67.5,-14.7 -67.5,-14.2 -68,-14.2 -68,105.2 -68.9,108.4 -124.4,108.4 -125.4,105.8 -131.6,108.4 
		-138.4,108.4 -138.4,110.6 -180.9,110.6 -180.9,111.1 -181.4,111.1 -181.4,824.3 -180.9,824.3 -180.9,824.8 -138.4,824.8 
		-138.4,827.1 -131.6,827.1 -125.4,829.6 -124.4,827.1 -68.9,827.1 -68,830.2 -68,949.6 -67.5,949.6 -67.5,950.1 -19.3,950.1 
		-19.3,986.5 -18.8,986.5 -18.8,987 949.5,987 949.5,986.5 950,986.5 950,950.1 998.3,950.1 998.3,949.6 998.8,949.6 998.8,830.2 
		999.6,827.1 1055.1,827.1 1056.1,829.6 1062.4,827.1 1069.1,827.1 1069.1,824.8 1111.7,824.8 1111.7,824.3 1112.2,824.3 
		1112.2,111.1 	"/>
	<polyline class="st1" points="250.7,132.9 241.7,62.6 254.6,-13.5 141.5,-4.6 77.4,-55.2 	"/>
	<polyline class="st1" points="908.7,35.1 956.5,44.6 979.5,30.1 	"/>
	<polyline class="st1" points="778.2,-12.6 807.5,84.4 834,86.4 828.2,99.1 873,80.6 908.7,35.1 898.5,-51.5 	"/>
	<polyline class="st1" points="512.5,21.9 553.7,63.6 595.5,57.9 606.5,90.9 618.5,103.6 664,75.9 	"/>
	<polyline class="st1" points="468.3,813.4 481.8,844.6 511.1,845.6 537.5,901 	"/>
	<g class="st2">
		<polyline class="st3" points="667.8,324.3 761.2,331 791.3,316.5 838.7,296.5 		"/>
		<polyline class="st3" points="761.2,331 781,353.1 785.8,360 842.9,348.6 875.4,346.9 		"/>
		<polyline class="st3" points="661.1,411.2 759.8,411.2 761.2,331 		"/>
		<polyline class="st3" points="759.8,411.2 785.8,429.1 793.1,437.1 838.3,464 875.8,442.3 		"/>
	</g>
	<g class="st2">
		<polyline class="st3" points="-172.5,587.4 -138.3,550.5 -155.9,507.4 -119.2,487.2 -91.9,466.1 -79.4,463.2 -66.2,467.5 
			-68.1,481.2 -74.5,481.1 -81.9,466.8 		"/>
	</g>
	<g class="st2">
		<polyline class="st3" points="-164.8,359.6 -144,364.6 -134.2,344.3 -174.8,345.3 		"/>
		<line class="st3" x1="-174.8" y1="345.3" x2="-164.8" y2="359.6"/>
	</g>
	<polyline class="st1" points="-129.3,289.4 -125.7,272.5 -107.8,261 -100,235.1 -45.3,223.8 35.2,173.6 77.4,83.4 	"/>
	<g class="st2">
		<polyline class="st3" points="-79.6,327.4 -74.6,373.4 -76.8,394.3 -96.6,431.8 		"/>
		<line class="st3" x1="-76.8" y1="394.3" x2="-35.9" y2="447.5"/>
	</g>
	<g class="st2">
		<polyline class="st3" points="83.1,570.1 69.4,591.1 80.3,600.7 83.1,570.1 		"/>
		<polyline class="st3" points="80.3,600.7 96,598.6 128,605.6 108.4,613.6 82.5,644 76.7,675.3 62.7,658.3 40.1,677.5 		"/>
		<line class="st3" x1="62.7" y1="658.3" x2="96" y2="598.6"/>
	</g>
	<polyline class="st1" points="178.2,556.6 188.3,511.4 167.6,457.6 196.8,442.4 211.3,463.5 201.2,501.6 226.1,547.4 178.2,556.6 	
		"/>
	<polyline class="st1" points="188.3,511.4 195.2,507.2 201.2,501.6 	"/>
	<polyline class="st1" points="167.6,457.6 157.3,444.2 143.5,417.5 155.2,381.3 	"/>
	<polyline class="st1" points="169,380.5 150,414.1 157.3,444.2 	"/>
	<polyline class="st1" points="211.3,463.5 262.1,459.7 260.8,448.4 255.6,441.3 252.5,421 242.8,411.4 	"/>
	<polyline class="st1" points="262.1,459.7 260,467.3 255.4,485.9 249.5,490.3 	"/>
	<line class="st1" x1="167.6" y1="457.6" x2="211.3" y2="463.5"/>
	<polyline class="st1" points="236.2,529.4 268.4,518.8 281.7,519.4 316.7,539.5 336.7,578.4 353.8,570 358.1,556.8 372.9,554.5 
		425.9,551.6 443.8,580.6 442.2,608.5 417.1,640 392.4,628.4 372.1,627.6 353.4,637.5 343.1,646.4 334,642.8 285.8,679.9 
		283.1,685.2 299.5,708.9 308.4,706.9 349.5,723.8 367.2,753.8 392,775.5 423.3,754.2 448.5,750.8 449.9,774 468.3,813.4 	"/>
	<g class="st2">
		<polyline class="st3" points="8.8,332.3 22.3,339.4 45.3,370.5 48.2,403.7 95.5,425.3 		"/>
		<polyline class="st3" points="45.3,370.5 68.3,379.3 106.4,404.7 		"/>
		<polyline class="st3" points="10.2,355.6 22.3,339.4 37.3,333.3 58.3,317.2 84.5,292 		"/>
		<polyline class="st3" points="8.8,332.3 24.1,306.6 58.3,317.2 97.3,350.6 119,381.5 		"/>
		<polyline class="st3" points="97.3,350.6 127.5,367.3 139.4,367.3 155,362.1 		"/>
	</g>
	<g class="st2">
		<polyline class="st3" points="209.2,328 161,268.9 161.1,209.3 160.7,126.5 222.5,201 237.7,238.6 251.5,297.4 209.2,328 		"/>
		<polyline class="st3" points="243.4,240.1 243.4,218.5 222.5,201 161.1,209.3 		"/>
	</g>
	<polyline class="st1" points="209.2,328 273,364.4 292.4,387.5 297,395 300.5,397.1 305.4,408.9 292.5,407.2 282,404 192.8,375.5 	
		"/>
	<polyline class="st1" points="305.4,408.9 332.8,427.5 381.2,443.6 329.3,465.4 	"/>
	<line class="st1" x1="367.2" y1="497.8" x2="384.5" y2="447.8"/>
	<g class="st2">
		<polyline class="st3" points="323.8,163.2 306.4,163.2 312.1,179.9 321.1,185.6 358.1,185.4 384.7,167.3 413,133.1 433.1,109.3 
			427.9,140.2 406.5,169.2 442.7,172.8 530.2,159.3 		"/>
		<polyline class="st3" points="358.1,185.4 336.5,248 335,278.7 342,305.8 356.3,302.7 		"/>
		<polyline class="st3" points="336.5,248 408.3,240.4 412.5,256.6 		"/>
		<line class="st3" x1="408.3" y1="240.4" x2="406.5" y2="169.2"/>
		<line class="st3" x1="384.7" y1="167.3" x2="406.5" y2="169.2"/>
		<line class="st3" x1="413" y1="133.1" x2="427.9" y2="140.2"/>
	</g>
	<polyline class="st1" points="434.7,336.5 496.3,360.7 514.7,377.2 516.1,385.6 	"/>
	<g class="st2">
		<polyline class="st3" points="500.5,229.4 579.2,279.5 598,258.6 608,239.3 579.1,188.7 538.1,177.8 		"/>
		<polyline class="st3" points="597.1,360.6 611.6,355.2 624.2,322.8 623.2,312.4 626.8,293 578.1,279.5 623.2,312.4 667.8,324.3 		
			"/>
		<line class="st3" x1="667.8" y1="324.3" x2="660.8" y2="411.1"/>
		<polyline class="st3" points="626.8,293 653.3,271.1 711.3,222.2 708.1,213.9 712.1,196.2 		"/>
	</g>
	<polyline class="st1" points="444.2,481.2 417,476.3 420.7,448.3 442.1,441.5 466.3,450.9 444.2,481.2 450,497.8 478.6,516.7 
		519.2,559.6 529.9,592.6 617.1,604.9 651.8,550.6 580.9,558.7 558.7,547 519.2,559.6 	"/>
	<polyline class="st1" points="706.3,489 709,466.8 680.8,459.9 609.9,455.8 588.7,453.9 533.8,467.9 504.3,483.6 527.9,446.1 
		548,409.7 573.3,353.1 576.4,317.7 565.5,335.7 573.3,353.1 	"/>
	<g class="st2">
		<circle class="st4" cx="353.7" cy="356.3" r="3.9"/>
	</g>
	<g class="st2">
		<circle class="st4" cx="-172.5" cy="587.4" r="1.5"/>
		<g>
			<circle class="st4" cx="-138.3" cy="550.5" r="4"/>
		</g>
		<circle class="st4" cx="-155.9" cy="507.4" r="1.3"/>
		<circle class="st4" cx="-119.2" cy="487.2" r="1.7"/>
		<circle class="st4" cx="-91.9" cy="466.1" r="2.1"/>
		<circle class="st4" cx="-79.4" cy="463.2" r="1.4"/>
		<circle class="st4" cx="-66.2" cy="467.5" r="1"/>
		<circle class="st4" cx="-68.1" cy="481.2" r="1.1"/>
		<circle class="st4" cx="-74.5" cy="481.1" r="1.4"/>
		<circle class="st4" cx="-81.9" cy="466.8" r="1.4"/>
	</g>
	<g class="st2">
		<circle class="st4" cx="-174.8" cy="345.3" r="1.7"/>
		<circle class="st4" cx="-164.8" cy="359.6" r="1.7"/>
		<circle class="st4" cx="-144" cy="364.6" r="0.8"/>
		<circle class="st4" cx="-134.2" cy="344.3" r="0.8"/>
	</g>
	<g class="st2">
		<circle class="st4" cx="-129.3" cy="289.4" r="1.9"/>
		<circle class="st4" cx="-125.7" cy="272.5" r="1.5"/>
		<circle class="st4" cx="-100" cy="235.1" r="1.5"/>
		<circle class="st4" cx="-107.8" cy="261" r="1.3"/>
		<circle class="st4" cx="-45.3" cy="223.8" r="1.3"/>
		<circle class="st4" cx="35.2" cy="173.6" r="1.1"/>
	</g>
	<g class="st2">
		<circle class="st4" cx="-79.6" cy="327.4" r="1.4"/>
		<circle class="st4" cx="-76.8" cy="394.3" r="1.1"/>
		<circle class="st4" cx="-96.6" cy="431.8" r="1.7"/>
		<circle class="st4" cx="-35.9" cy="447.5" r="1.4"/>
		<circle class="st4" cx="-74.6" cy="373.4" r="1.1"/>
	</g>
	<g class="st2">
		<g>
			<circle class="st4" cx="96" cy="598.6" r="4.8"/>
		</g>
		<circle class="st4" cx="69.4" cy="591.1" r="1.3"/>
		<circle class="st4" cx="80.3" cy="600.7" r="1.5"/>
		<circle class="st4" cx="83.1" cy="570.1" r="1.4"/>
		<circle class="st4" cx="128" cy="605.6" r="2.2"/>
		<circle class="st4" cx="82.5" cy="644" r="1.7"/>
		<circle class="st4" cx="108.4" cy="613.6" r="1.7"/>
		<circle class="st4" cx="76.7" cy="675.3" r="2.8"/>
		<circle class="st4" cx="72.5" cy="668" r="1.7"/>
		<circle class="st4" cx="62.7" cy="658.3" r="2.8"/>
		<circle class="st4" cx="70.2" cy="641.5" r="2.2"/>
		<circle class="st4" cx="40.1" cy="677.5" r="2.8"/>
	</g>
	<g class="st2">
		<g>
			<circle class="st4" cx="167.6" cy="457.6" r="3.9"/>
		</g>
		<circle class="st4" cx="157.3" cy="444.2" r="1.3"/>
		<circle class="st4" cx="143.5" cy="417.5" r="1.3"/>
		<circle class="st4" cx="150" cy="414.1" r="1.5"/>
		<circle class="st4" cx="169" cy="380.5" r="1.5"/>
		<circle class="st4" cx="155.2" cy="381.3" r="1.3"/>
		<circle class="st4" cx="196.8" cy="442.4" r="1.7"/>
		<circle class="st4" cx="211.3" cy="463.5" r="2.7"/>
		<circle class="st4" cx="201.2" cy="501.6" r="2.1"/>
		<circle class="st4" cx="195.2" cy="507.2" r="2.3"/>
		<circle class="st4" cx="188.3" cy="511.4" r="2.5"/>
		<g>
			<circle class="st4" cx="196.4" cy="534.4" r="3.1"/>
		</g>
		<circle class="st4" cx="178.2" cy="556.6" r="2.5"/>
		<g>
			<circle class="st4" cx="226.1" cy="547.4" r="4.2"/>
		</g>
		<circle class="st4" cx="262.1" cy="459.7" r="1.9"/>
		<circle class="st4" cx="260" cy="467.3" r="1.5"/>
		<circle class="st4" cx="255.4" cy="485.9" r="1.5"/>
		<circle class="st4" cx="249.5" cy="490.3" r="1.3"/>
		<circle class="st4" cx="260.8" cy="448.4" r="1.3"/>
		<circle class="st4" cx="255.6" cy="441.3" r="0.8"/>
		<circle class="st4" cx="252.5" cy="421" r="1"/>
		<circle class="st4" cx="242.8" cy="411.4" r="1.3"/>
	</g>
	<g class="st2">
		<g>
			<circle class="st4" cx="236.2" cy="529.4" r="1.9"/>
		</g>
		<circle class="st4" cx="268.4" cy="518.8" r="0.9"/>
		<circle class="st4" cx="281.7" cy="519.4" r="0.8"/>
		<circle class="st4" cx="316.7" cy="539.5" r="0.7"/>
		<circle class="st4" cx="336.7" cy="578.4" r="1.5"/>
		<circle class="st4" cx="353.8" cy="570" r="1.1"/>
		<circle class="st4" cx="358.1" cy="556.8" r="1.7"/>
		<circle class="st4" cx="372.9" cy="554.5" r="1.1"/>
		<circle class="st4" cx="425.9" cy="551.6" r="1.4"/>
		<circle class="st4" cx="443.8" cy="580.6" r="1.5"/>
		<circle class="st4" cx="442.2" cy="608.5" r="1.5"/>
		<circle class="st4" cx="417.1" cy="640" r="1.3"/>
		<circle class="st4" cx="392.4" cy="628.4" r="1.1"/>
		<circle class="st4" cx="372.1" cy="627.6" r="1"/>
		<circle class="st4" cx="353.4" cy="637.5" r="1.1"/>
		<circle class="st4" cx="343.1" cy="646.4" r="1"/>
		<circle class="st4" cx="334" cy="642.8" r="0.8"/>
		<circle class="st4" cx="285.8" cy="679.9" r="0.7"/>
		<circle class="st4" cx="283.1" cy="685.2" r="1.3"/>
		<circle class="st4" cx="299.5" cy="708.9" r="0.8"/>
		<circle class="st4" cx="308.4" cy="706.9" r="1.5"/>
		<circle class="st4" cx="349.5" cy="723.8" r="1.1"/>
		<circle class="st4" cx="367.2" cy="753.8" r="1"/>
		<circle class="st4" cx="392" cy="775.5" r="1.1"/>
		<circle class="st4" cx="423.3" cy="754.2" r="2"/>
		<circle class="st4" cx="448.5" cy="750.8" r="1"/>
		<circle class="st4" cx="449.9" cy="774" r="1.3"/>
		<circle class="st4" cx="468.3" cy="813.4" r="1.3"/>
	</g>
	<g class="st2">
		<g>
			<circle class="st4" cx="8.8" cy="332.3" r="3.5"/>
		</g>
		<g>
			<circle class="st4" cx="24.1" cy="306.6" r="2.8"/>
		</g>
		<circle class="st4" cx="10.2" cy="355.6" r="1.4"/>
		<circle class="st4" cx="22.3" cy="339.4" r="1.3"/>
		<circle class="st4" cx="37.3" cy="333.3" r="1.3"/>
		<circle class="st4" cx="58.3" cy="317.2" r="1.1"/>
		<circle class="st4" cx="84.5" cy="292" r="1.7"/>
		<circle class="st4" cx="97.3" cy="350.6" r="1.8"/>
		<circle class="st4" cx="119" cy="381.5" r="1.1"/>
		<circle class="st4" cx="127.5" cy="366.7" r="2"/>
		<circle class="st4" cx="139.4" cy="367.3" r="1.4"/>
		<circle class="st4" cx="155" cy="362.1" r="1.1"/>
		<circle class="st4" cx="106.4" cy="404.7" r="3.1"/>
		<circle class="st4" cx="95.5" cy="425.3" r="1.7"/>
		<circle class="st4" cx="48.2" cy="403.7" r="1.4"/>
		<circle class="st4" cx="68.3" cy="379.3" r="1.1"/>
		<circle class="st4" cx="45.3" cy="370.5" r="1.5"/>
	</g>
	<g class="st2">
		<g>
			<circle class="st4" cx="222.5" cy="201" r="4.5"/>
		</g>
		<circle class="st4" cx="161.1" cy="209.3" r="2.2"/>
		<circle class="st4" cx="243.4" cy="218.5" r="1.7"/>
		<circle class="st4" cx="237.7" cy="238.6" r="2"/>
		<circle class="st4" cx="243.4" cy="240.1" r="1.4"/>
		<circle class="st4" cx="251.5" cy="297.4" r="1.8"/>
		<circle class="st4" cx="209.2" cy="328" r="2.9"/>
		<circle class="st4" cx="161" cy="268.9" r="2.1"/>
		<circle class="st4" cx="160.7" cy="126.5" r="1.3"/>
	</g>
	<g class="st2">
		<circle class="st4" cx="192.8" cy="375.5" r="2.1"/>
		<g>
			<circle class="st4" cx="282" cy="404" r="3.8"/>
		</g>
		<circle class="st4" cx="273" cy="364.4" r="1"/>
		<circle class="st4" cx="292.4" cy="387.5" r="1.3"/>
		<circle class="st4" cx="297" cy="395" r="0.8"/>
		<circle class="st4" cx="300.5" cy="397.1" r="1.3"/>
		<circle class="st4" cx="305.4" cy="408.9" r="0.9"/>
		<circle class="st4" cx="292.5" cy="407.2" r="1.6"/>
		<circle class="st4" cx="296" cy="409" r="0.7"/>
		<circle class="st4" cx="332.8" cy="427.5" r="1.6"/>
		<circle class="st4" cx="381.2" cy="443.6" r="1.6"/>
		<circle class="st4" cx="384.5" cy="447.8" r="1.2"/>
		<circle class="st4" cx="329.3" cy="465.4" r="1.3"/>
		<circle class="st4" cx="367.2" cy="497.8" r="1.3"/>
	</g>
	<g class="st2">
		<circle class="st4" cx="306.4" cy="163.2" r="1.2"/>
		<circle class="st4" cx="323.8" cy="163.2" r="1.2"/>
		<circle class="st4" cx="312.1" cy="179.9" r="1"/>
		<circle class="st4" cx="321.1" cy="185.6" r="1.5"/>
		<circle class="st4" cx="358.1" cy="185.4" r="2"/>
		<circle class="st4" cx="384.7" cy="167.3" r="2.8"/>
		<circle class="st4" cx="406.5" cy="169.2" r="0.9"/>
		<circle class="st4" cx="442.7" cy="172.8" r="1.3"/>
		<circle class="st4" cx="413" cy="133.1" r="1.9"/>
		<circle class="st4" cx="427.9" cy="140.2" r="1.4"/>
		<circle class="st4" cx="433.1" cy="109.3" r="1.5"/>
		<g>
			<circle class="st4" cx="408.3" cy="240.4" r="4.1"/>
		</g>
		<circle class="st4" cx="412.5" cy="256.6" r="1.4"/>
		<circle class="st4" cx="336.5" cy="248" r="1.7"/>
		<circle class="st4" cx="335" cy="278.7" r="1.3"/>
		<circle class="st4" cx="342" cy="305.8" r="1.8"/>
		<circle class="st4" cx="356.3" cy="302.7" r="1"/>
		<circle class="st4" cx="530.2" cy="159.3" r="1"/>
	</g>
	<g class="st2">
		<circle class="st4" cx="496.3" cy="360.7" r="2.5"/>
		<circle class="st4" cx="514.7" cy="377.2" r="2.2"/>
		<circle class="st4" cx="516.1" cy="385.6" r="2"/>
		<circle class="st4" cx="434.7" cy="336.5" r="1.7"/>
	</g>
	<g class="st2">
		<circle class="st4" cx="500.5" cy="229.4" r="2.5"/>
		<circle class="st4" cx="538.1" cy="177.8" r="1.3"/>
		<circle class="st4" cx="579.1" cy="188.7" r="1"/>
		<circle class="st4" cx="598" cy="258.6" r="1"/>
		<circle class="st4" cx="579.2" cy="279.5" r="2.5"/>
		<circle class="st4" cx="608" cy="239.3" r="1.1"/>
		<circle class="st4" cx="626.8" cy="293" r="1.3"/>
		<circle class="st4" cx="623.2" cy="312.4" r="1.7"/>
		<circle class="st4" cx="624.2" cy="322.8" r="1.1"/>
		<circle class="st4" cx="611.6" cy="355.2" r="1.1"/>
		<circle class="st4" cx="597.1" cy="360.6" r="1.1"/>
		<circle class="st4" cx="660.8" cy="411.1" r="1.8"/>
		<circle class="st4" cx="653.3" cy="271.1" r="0.8"/>
		<circle class="st4" cx="711.3" cy="222.2" r="1"/>
		<circle class="st4" cx="708.1" cy="213.9" r="1.1"/>
		<circle class="st4" cx="712.1" cy="196.2" r="1.4"/>
		<circle class="st4" cx="667.8" cy="324.3" r="2.6"/>
	</g>
	<g class="st2">
		<circle class="st4" cx="417" cy="476.3" r="1.9"/>
		<circle class="st4" cx="420.7" cy="448.3" r="1.1"/>
		<circle class="st4" cx="442.1" cy="441.5" r="1.4"/>
		<circle class="st4" cx="466.3" cy="450.9" r="1"/>
		<circle class="st4" cx="444.2" cy="481.2" r="1.7"/>
		<circle class="st4" cx="450" cy="497.8" r="1.1"/>
		<g>
			<circle class="st4" cx="478.6" cy="516.7" r="3.6"/>
		</g>
		<circle class="st4" cx="519.2" cy="559.6" r="1.5"/>
		<circle class="st4" cx="529.9" cy="592.6" r="1.4"/>
		<circle class="st4" cx="558.7" cy="547" r="1.3"/>
		<circle class="st4" cx="580.9" cy="558.7" r="1.4"/>
		<circle class="st4" cx="651.8" cy="550.6" r="1.5"/>
		<circle class="st4" cx="617.1" cy="604.9" r="2.5"/>
	</g>
	<g class="st2">
		<circle class="st4" cx="504.3" cy="483.6" r="1.5"/>
		<circle class="st4" cx="527.9" cy="446.1" r="1"/>
		<circle class="st4" cx="548" cy="409.7" r="1.3"/>
		<circle class="st4" cx="573.3" cy="353.1" r="1"/>
		<circle class="st4" cx="576.4" cy="317.7" r="1.5"/>
		<circle class="st4" cx="565.5" cy="335.7" r="1.3"/>
		<circle class="st4" cx="533.8" cy="467.9" r="1.5"/>
		<circle class="st4" cx="588.7" cy="453.9" r="1.3"/>
		<circle class="st4" cx="609.9" cy="455.8" r="1"/>
		<circle class="st4" cx="680.8" cy="459.9" r="1.3"/>
		<circle class="st4" cx="709" cy="466.8" r="1.5"/>
		<circle class="st4" cx="706.3" cy="489" r="1.5"/>
	</g>
	<g class="st2">
		<circle class="st4" cx="17.6" cy="470.4" r="4.3"/>
	</g>
	<g class="st2">
		<circle class="st4" cx="619.1" cy="238.2" r="4.7"/>
	</g>
	<circle class="st5" cx="-174.4" cy="547.4" r="0.8"/>
	<circle class="st5" cx="-140.5" cy="723.2" r="1"/>
	<circle class="st5" cx="-84.7" cy="667.2" r="1.3"/>
	<circle class="st5" cx="-74.4" cy="703.6" r="1.5"/>
	<circle class="st5" cx="-69.4" cy="718.4" r="1.3"/>
	<circle class="st5" cx="-142.6" cy="756.3" r="1.3"/>
	<circle class="st5" cx="-109.7" cy="779.3" r="2.3"/>
	<circle class="st5" cx="-25.5" cy="811.5" r="3.1"/>
	<circle class="st5" cx="-157.8" cy="443.4" r="1.5"/>
	<circle class="st5" cx="35.6" cy="452.4" r="1.4"/>
	<circle class="st5" cx="-24.2" cy="517.9" r="1.2"/>
	<circle class="st5" cx="15.1" cy="555.5" r="0.9"/>
	<circle class="st5" cx="57.6" cy="503.2" r="1.2"/>
	<circle class="st5" cx="119.7" cy="540.9" r="1"/>
	<circle class="st5" cx="139.5" cy="536.3" r="1.3"/>
	<circle class="st5" cx="23.4" cy="674.2" r="1.4"/>
	<circle class="st5" cx="18.4" cy="661" r="1.4"/>
	<circle class="st5" cx="11.7" cy="675" r="1.7"/>
	<circle class="st5" cx="3.3" cy="648.5" r="1.7"/>
	<circle class="st5" cx="-22.9" cy="644.9" r="2.2"/>
	<circle class="st5" cx="-16.8" cy="752.8" r="2.8"/>
	<circle class="st5" cx="49.6" cy="731.3" r="2"/>
	<circle class="st5" cx="32.6" cy="778.2" r="2"/>
	<circle class="st5" cx="106.8" cy="777" r="2"/>
	<circle class="st5" cx="129.1" cy="705.1" r="1.7"/>
	<circle class="st5" cx="174.3" cy="721.6" r="1.4"/>
	<circle class="st5" cx="190.4" cy="709.3" r="2"/>
	<circle class="st5" cx="202.7" cy="719" r="1.1"/>
	<circle class="st5" cx="162.5" cy="773.7" r="1.4"/>
	<circle class="st5" cx="241.2" cy="719" r="1.1"/>
	<circle class="st5" cx="273.6" cy="731" r="1.3"/>
	<circle class="st5" cx="275.9" cy="766.3" r="1.5"/>
	<circle class="st5" cx="314.2" cy="769.4" r="1.5"/>
	<circle class="st5" cx="89.6" cy="698.3" r="1.5"/>
	<circle class="st5" cx="403" cy="674.3" r="1.7"/>
	<circle class="st5" cx="436.7" cy="697.5" r="1"/>
	<circle class="st5" cx="501.3" cy="677.2" r="1.3"/>
	<circle class="st5" cx="166.3" cy="582.8" r="1.1"/>
	<circle class="st5" cx="180" cy="586.5" r="1.4"/>
	<circle class="st5" cx="200" cy="604.6" r="2.2"/>
	<circle class="st5" cx="228.9" cy="594.7" r="1.4"/>
	<circle class="st5" cx="207" cy="622.7" r="2"/>
	<circle class="st5" cx="183.5" cy="633.3" r="1.5"/>
	<circle class="st5" cx="173.6" cy="623.3" r="1.1"/>
	<circle class="st5" cx="239.8" cy="632.6" r="1.7"/>
	<circle class="st5" cx="228.6" cy="575.4" r="1"/>
	<circle class="st5" cx="219.3" cy="576.8" r="1.1"/>
	<circle class="st5" cx="153.2" cy="587.3" r="1.1"/>
	<circle class="st5" cx="279" cy="583.3" r="1"/>
	<circle class="st5" cx="275.7" cy="615.5" r="0.8"/>
	<circle class="st5" cx="311.3" cy="448.6" r="0.7"/>
	<circle class="st5" cx="282.2" cy="441.4" r="0.8"/>
	<circle class="st5" cx="278.6" cy="427" r="0.8"/>
	<circle class="st5" cx="376" cy="424.5" r="0.9"/>
	<circle class="st5" cx="295.7" cy="364.9" r="0.9"/>
	<circle class="st5" cx="297.2" cy="368" r="0.8"/>
	<circle class="st5" cx="326.9" cy="369.3" r="0.8"/>
	<circle class="st5" cx="433.8" cy="260.2" r="1"/>
	<circle class="st5" cx="481.8" cy="292.1" r="1.4"/>
	<circle class="st5" cx="492.7" cy="284.3" r="1.7"/>
	<circle class="st5" cx="516.4" cy="320.9" r="1.1"/>
	<circle class="st5" cx="403.5" cy="383.9" r="1.4"/>
	<circle class="st5" cx="595.4" cy="676.6" r="1"/>
	<circle class="st5" cx="696" cy="668.4" r="0.8"/>
	<circle class="st5" cx="552.6" cy="777.2" r="1.5"/>
	<circle class="st5" cx="641.9" cy="769" r="2.1"/>
	<circle class="st5" cx="666.3" cy="796.8" r="1.5"/>
	<circle class="st5" cx="642.1" cy="780.1" r="1"/>
	<circle class="st5" cx="584.6" cy="804.8" r="1.9"/>
	<circle class="st5" cx="548.6" cy="824.9" r="1.3"/>
	<circle class="st5" cx="516.2" cy="801.4" r="1.3"/>
	<circle class="st5" cx="-98" cy="762.3" r="0.8"/>
	<circle class="st5" cx="-75.6" cy="773" r="1.1"/>
	<circle class="st5" cx="-65.4" cy="775.7" r="1.4"/>
	<circle class="st5" cx="-31.8" cy="755.4" r="0.7"/>
	<circle class="st5" cx="-28.3" cy="750" r="0.7"/>
	<circle class="st5" cx="-38.4" cy="728" r="1"/>
	<circle class="st5" cx="9.7" cy="737.5" r="1.4"/>
	<circle class="st5" cx="-1.1" cy="744" r="0.7"/>
	<circle class="st5" cx="-0.6" cy="757.1" r="1.3"/>
	<circle class="st5" cx="21.2" cy="715.8" r="0.6"/>
	<circle class="st5" cx="-24.6" cy="613.6" r="0.7"/>
	<circle class="st5" cx="-7.6" cy="636" r="1.1"/>
	<circle class="st5" cx="25.6" cy="632.2" r="1"/>
	<circle class="st5" cx="47.8" cy="648.9" r="0.8"/>
	<circle class="st5" cx="53.4" cy="660.5" r="1.1"/>
	<circle class="st5" cx="-48.8" cy="523" r="1.1"/>
	<circle class="st5" cx="-15.6" cy="486.8" r="0.8"/>
	<circle class="st5" cx="92.1" cy="486.2" r="1.1"/>
	<circle class="st5" cx="126.6" cy="473.7" r="1.1"/>
	<circle class="st5" cx="113.3" cy="457.6" r="1"/>
	<circle class="st5" cx="104.1" cy="442.3" r="0.8"/>
	<circle class="st5" cx="200.7" cy="391" r="1"/>
	<circle class="st5" cx="138.3" cy="322.1" r="1.3"/>
	<circle class="st5" cx="170.3" cy="334.5" r="0.8"/>
	<circle class="st5" cx="577.2" cy="116.5" r="1.1"/>
	<circle class="st5" cx="626.7" cy="128.9" r="1.5"/>
	<circle class="st5" cx="-148.1" cy="275.1" r="0.8"/>
	<circle class="st5" cx="-78.7" cy="579.3" r="0.8"/>
	<circle class="st5" cx="-24.6" cy="153.3" r="1.3"/>
	<circle class="st5" cx="132.1" cy="682.2" r="2.2"/>
	<circle class="st5" cx="172.7" cy="254.4" r="1.1"/>
	<circle class="st5" cx="176.1" cy="254.2" r="0.6"/>
	<circle class="st5" cx="280.5" cy="238.3" r="0.8"/>
	<circle class="st5" cx="221.1" cy="295.8" r="0.8"/>
	<circle class="st5" cx="367.5" cy="181.9" r="0.9"/>
	<circle class="st5" cx="376" cy="183.5" r="0.8"/>
	<circle class="st5" cx="354.7" cy="228.3" r="1.4"/>
	<circle class="st5" cx="540.1" cy="236.8" r="1"/>
	<circle class="st5" cx="312" cy="544.2" r="0.8"/>
	<circle class="st5" cx="488.4" cy="448.2" r="0.6"/>
	<circle class="st5" cx="212.5" cy="513.5" r="1.7"/>
	<g class="st2">
		<polyline class="st3" points="666.1,260.3 711.8,222.5 708.4,214.1 712.4,196.1 		"/>
		<line class="st3" x1="711.8" y1="222.5" x2="763.2" y2="229.8"/>
	</g>
	<g class="st2">
		<polyline class="st3" points="957.3,555 894.4,531.8 844.6,501.4 822,508.2 811.8,500.4 817,491.1 844.6,501.4 		"/>
		<line class="st3" x1="811.8" y1="500.4" x2="802.1" y2="500.4"/>
		<polyline class="st3" points="844.6,501.4 828.7,544.6 777,543.7 781.4,578.4 774.1,592 739.2,555 746.1,534.5 777,543.7 		"/>
		<line class="st3" x1="739.2" y1="555" x2="752.6" y2="624.7"/>
		<line class="st3" x1="739.2" y1="555" x2="733.6" y2="618"/>
	</g>
	<polyline class="st1" points="871.6,593.9 881.8,597.3 907.5,598.3 931,601 1000.2,572.8 995.6,586.2 959.4,650.4 951,661.3 
		929,648.9 900.8,632.6 885.8,614.2 871.6,593.9 	"/>
	<path class="st1" d="M741.5,480.8"/>
	<g class="st2">
		<polyline class="st3" points="708.9,467.6 706.1,489.4 727.3,492.5 741.5,480.8 726.4,462.8 708.9,467.6 681.3,460.3 661.1,459.2 
					"/>
	</g>
	<g class="st2">
		<polyline class="st3" points="978,434.3 971.7,414.9 969,406.5 959,405.9 963.8,412.2 971.7,414.9 		"/>
	</g>
	<g class="st2">
		<polyline class="st3" points="1068.6,332.1 1031.8,283.8 994.3,246.1 959.4,291.3 921,316.7 944,238.9 966.7,206.8 1004.4,186.2 
			1070.3,150.5 1088.4,134.9 1048.3,207.7 994.3,246.1 		"/>
		<line class="st3" x1="966.7" y1="206.8" x2="994.3" y2="246.1"/>
	</g>
	<g class="st2">
		<polyline class="st3" points="1027.6,385.4 1044.3,391.3 1053.1,397.8 		"/>
		<line class="st3" x1="1044.3" y1="391.3" x2="1055" y2="394.4"/>
	</g>
	<g class="st2">
		<polyline class="st3" points="1110,533.5 1103.3,528.3 1059.6,507.8 1009.6,504.6 1036.8,494.2 1075.7,482 1105,419.3 
			1113.1,412.2 		"/>
		<line class="st3" x1="1103.3" y1="528.3" x2="1105" y2="419.3"/>
		<polyline class="st3" points="1032.8,463 1039.5,448.8 1045.8,437.9 1075.7,482 		"/>
		<line class="st3" x1="1075.7" y1="482" x2="1103.3" y2="528.3"/>
	</g>
	<g class="st2">
		<circle class="st4" cx="785.8" cy="429.1" r="1"/>
		<circle class="st4" cx="793.1" cy="437.1" r="1.3"/>
		<circle class="st4" cx="838.3" cy="464" r="1.3"/>
		<circle class="st4" cx="875.8" cy="442.3" r="2.1"/>
		<circle class="st4" cx="761.2" cy="331" r="2"/>
		<circle class="st4" cx="791.3" cy="316.5" r="1.4"/>
		<circle class="st4" cx="838.7" cy="296.5" r="1.1"/>
		<circle class="st4" cx="781" cy="353.1" r="1.5"/>
		<circle class="st4" cx="785.8" cy="360" r="1.1"/>
		<circle class="st4" cx="842.9" cy="348.6" r="1.1"/>
		<circle class="st4" cx="875.4" cy="346.9" r="1"/>
		<circle class="st4" cx="759.8" cy="411.2" r="2.4"/>
		<circle class="st4" cx="661.1" cy="411.2" r="2"/>
	</g>
	<g class="st2">
		<circle class="st4" cx="712.4" cy="196.1" r="1.2"/>
		<circle class="st4" cx="763.2" cy="229.8" r="1.6"/>
		<circle class="st4" cx="708.4" cy="214.1" r="1.5"/>
		<circle class="st4" cx="711.8" cy="222.5" r="1.3"/>
	</g>
	<g class="st2">
		<circle class="st4" cx="752.6" cy="624.7" r="0.9"/>
		<circle class="st4" cx="774.1" cy="592" r="1.9"/>
		<circle class="st4" cx="781.4" cy="578.4" r="0.9"/>
		<circle class="st4" cx="739.2" cy="555" r="1"/>
		<circle class="st4" cx="746.1" cy="534.5" r="0.9"/>
		<circle class="st4" cx="777" cy="543.7" r="1.4"/>
		<circle class="st4" cx="802.1" cy="500.4" r="1.3"/>
		<circle class="st4" cx="811.8" cy="500.4" r="1.9"/>
		<circle class="st4" cx="822" cy="508.2" r="1"/>
		<circle class="st4" cx="894.4" cy="531.8" r="1.6"/>
		<circle class="st4" cx="957.3" cy="555" r="1.7"/>
		<circle class="st4" cx="844.6" cy="501.4" r="2"/>
		<circle class="st4" cx="817" cy="491.1" r="1.4"/>
		<circle class="st4" cx="828.7" cy="544.6" r="1.4"/>
		<circle class="st4" cx="733.6" cy="618" r="1.4"/>
	</g>
	<g class="st2">
		<circle class="st4" cx="871.6" cy="593.9" r="1.7"/>
		<circle class="st4" cx="881.8" cy="597.3" r="0.8"/>
		<circle class="st4" cx="907.5" cy="598.3" r="1.5"/>
		<circle class="st4" cx="931" cy="601" r="1"/>
		<circle class="st4" cx="1000.2" cy="572.8" r="1.3"/>
		<circle class="st4" cx="995.6" cy="586.2" r="1.5"/>
		<circle class="st4" cx="900.8" cy="632.6" r="1.4"/>
		<circle class="st4" cx="929" cy="648.9" r="1"/>
		<circle class="st4" cx="951" cy="661.3" r="1.3"/>
		<circle class="st4" cx="959.4" cy="650.4" r="1"/>
		<circle class="st4" cx="885.8" cy="614.2" r="0.9"/>
	</g>
	<g class="st2">
		<circle class="st4" cx="681.3" cy="460.3" r="1"/>
		<circle class="st4" cx="708.9" cy="467.6" r="1.4"/>
		<circle class="st4" cx="726.4" cy="462.8" r="0.8"/>
		<circle class="st4" cx="741.5" cy="480.8" r="1.3"/>
		<circle class="st4" cx="727.3" cy="492.5" r="0.9"/>
		<circle class="st4" cx="706.1" cy="489.4" r="1.4"/>
	</g>
	<g class="st2">
		<circle class="st4" cx="959" cy="405.9" r="1"/>
		<circle class="st4" cx="969" cy="406.5" r="1"/>
		<circle class="st4" cx="971.7" cy="414.9" r="1.3"/>
		<circle class="st4" cx="963.8" cy="412.2" r="0.8"/>
		<circle class="st4" cx="978" cy="434.3" r="0.8"/>
	</g>
	<g class="st2">
		<g>
			<circle class="st4" cx="966.7" cy="206.8" r="3.6"/>
		</g>
		<circle class="st4" cx="994.3" cy="246.1" r="2.3"/>
		<circle class="st4" cx="1048.3" cy="207.7" r="1.7"/>
		<circle class="st4" cx="959.4" cy="291.3" r="2.3"/>
		<circle class="st4" cx="1031.8" cy="283.8" r="1.3"/>
		<circle class="st4" cx="1068.6" cy="332.1" r="1.9"/>
		<circle class="st4" cx="1070.3" cy="150.5" r="1.1"/>
		<circle class="st4" cx="1088.4" cy="134.9" r="1.3"/>
		<circle class="st4" cx="921" cy="316.7" r="1.5"/>
		<circle class="st4" cx="944" cy="238.9" r="1"/>
		<circle class="st4" cx="1004.4" cy="186.2" r="1.1"/>
	</g>
	<g class="st2">
		<circle class="st4" cx="1027.6" cy="385.4" r="1.7"/>
		<circle class="st4" cx="1044.3" cy="391.3" r="1"/>
		<circle class="st4" cx="1055" cy="394.4" r="0.8"/>
		<circle class="st4" cx="1053.1" cy="397.8" r="0.8"/>
	</g>
	<g class="st2">
		<circle class="st4" cx="1113.1" cy="412.2" r="1"/>
		<circle class="st4" cx="1105" cy="419.3" r="2.1"/>
		<circle class="st4" cx="1045.8" cy="437.9" r="1.7"/>
		<circle class="st4" cx="1075.7" cy="482" r="1.7"/>
		<circle class="st4" cx="1103.3" cy="528.3" r="1.7"/>
		<circle class="st4" cx="1110" cy="533.5" r="0.8"/>
		<circle class="st4" cx="1059.6" cy="507.8" r="0.8"/>
		<circle class="st4" cx="1036.8" cy="494.2" r="1"/>
		<circle class="st4" cx="1009.6" cy="504.6" r="1.5"/>
		<circle class="st4" cx="1032.8" cy="463" r="1.3"/>
		<g>
			<circle class="st4" cx="1039.5" cy="448.8" r="3.8"/>
		</g>
	</g>
	<g class="st2">
		<circle class="st4" cx="769.5" cy="678.8" r="3.1"/>
	</g>
	<circle class="st5" cx="719.1" cy="735.3" r="0.9"/>
	<circle class="st5" cx="739.2" cy="698.3" r="1"/>
	<circle class="st5" cx="695.9" cy="668.6" r="0.9"/>
	<circle class="st5" cx="861.5" cy="731.9" r="1.7"/>
	<circle class="st5" cx="844.2" cy="748" r="1"/>
	<circle class="st5" cx="810.9" cy="779" r="1.7"/>
	<circle class="st5" cx="756.5" cy="778.6" r="1.3"/>
	<circle class="st5" cx="913.4" cy="696.2" r="1.3"/>
	<circle class="st5" cx="937.9" cy="696.6" r="0.8"/>
	<circle class="st5" cx="953.5" cy="707.1" r="1"/>
	<circle class="st5" cx="909.2" cy="757.9" r="1"/>
	<circle class="st5" cx="916.7" cy="469.5" r="1"/>
	<circle class="st5" cx="918.6" cy="441.9" r="1"/>
	<circle class="st5" cx="924.9" cy="441.3" r="0.8"/>
	<circle class="st5" cx="1035.7" cy="357" r="0.8"/>
	<circle class="st5" cx="808.2" cy="163.1" r="1.6"/>
	<circle class="st5" cx="819.3" cy="145.3" r="1.3"/>
	<circle class="st5" cx="818" cy="170.6" r="1.3"/>
	<circle class="st5" cx="810.7" cy="185.9" r="1.2"/>
	<circle class="st5" cx="822.8" cy="196.1" r="1.2"/>
	<circle class="st5" cx="795" cy="214.1" r="0.7"/>
	<circle class="st5" cx="830.2" cy="264.3" r="0.9"/>
	<circle class="st5" cx="652.2" cy="550.6" r="2"/>
	<circle class="st5" cx="794.6" cy="661.7" r="0.8"/>
	<circle class="st5" cx="728.7" cy="621.5" r="1.1"/>
	<circle class="st5" cx="700.3" cy="609.4" r="0.7"/>
	<circle class="st5" cx="704.8" cy="584.7" r="0.7"/>
	<circle class="st5" cx="772.2" cy="698.3" r="1.3"/>
	<circle class="st5" cx="777.3" cy="700.8" r="1.3"/>
	<circle class="st5" cx="807.6" cy="697" r="1"/>
	<circle class="st5" cx="840.6" cy="701.8" r="1.3"/>
	<circle class="st5" cx="874.7" cy="701.8" r="1.3"/>
	<circle class="st5" cx="843.8" cy="580.6" r="1.4"/>
	<circle class="st5" cx="748.6" cy="170.8" r="1"/>
	<circle class="st5" cx="872.2" cy="171.7" r="1.5"/>
	<circle class="st5" cx="891.2" cy="203.7" r="1.5"/>
	<circle class="st5" cx="933.1" cy="217.1" r="1.7"/>
	<circle class="st5" cx="930.5" cy="186.5" r="1"/>
	<circle class="st5" cx="914.9" cy="252.2" r="1"/>
	<circle class="st5" cx="918.6" cy="262" r="1.3"/>
	<circle class="st5" cx="914" cy="284.8" r="0.6"/>
	<circle class="st5" cx="957.9" cy="273.5" r="0.4"/>
	<circle class="st5" cx="1006.6" cy="194.4" r="1.4"/>
	<circle class="st5" cx="907.7" cy="383.2" r="1.3"/>
	<circle class="st5" cx="951.2" cy="337.3" r="1.3"/>
	<circle class="st5" cx="960.3" cy="313.6" r="1.4"/>
	<circle class="st5" cx="983.9" cy="316" r="1.1"/>
	<circle class="st5" cx="991.8" cy="303.6" r="1"/>
	<circle class="st5" cx="1003.5" cy="333" r="0.7"/>
	<circle class="st5" cx="730.1" cy="360.9" r="0.7"/>
	<circle class="st5" cx="737" cy="358.9" r="0.6"/>
	<circle class="st5" cx="761.2" cy="477.8" r="1"/>
	<circle class="st5" cx="1032.2" cy="766.2" r="0.8"/>
	<circle class="st5" cx="1026.1" cy="717.5" r="0.8"/>
	<circle class="st5" cx="1022.1" cy="666.1" r="1"/>
	<circle class="st5" cx="1030.1" cy="663.3" r="0.8"/>
	<circle class="st5" cx="1059.2" cy="648.5" r="0.8"/>
	<line class="st1" x1="-174.2" y1="129.1" x2="-173.1" y2="91.7"/>
	<polyline class="st1" points="-174.2,129.1 -146.3,151.9 -104.3,191.8 -98,184.1 	"/>
	<circle class="st5" cx="-174.2" cy="129.1" r="1"/>
	<circle class="st5" cx="-146.3" cy="151.9" r="2.1"/>
	<circle class="st5" cx="-104.3" cy="191.8" r="1.7"/>
	<circle class="st5" cx="-98" cy="184.1" r="1.7"/>
	<circle class="st5" cx="-149.5" cy="148.3" r="1"/>
	<circle class="st5" cx="-111.8" cy="151.9" r="0.8"/>
	<circle class="st5" cx="90.3" cy="837.6" r="2.2"/>
	<circle class="st5" cx="57.1" cy="791" r="1"/>
	<circle class="st5" cx="56.8" cy="786.6" r="0.8"/>
	<circle class="st5" cx="127.8" cy="856.8" r="4.2"/>
	<circle class="st5" cx="112" cy="859.1" r="1.2"/>
	<circle class="st5" cx="90.6" cy="865.5" r="1.2"/>
	<circle class="st5" cx="-5.7" cy="859.6" r="1.8"/>
	<circle class="st5" cx="-42" cy="927.5" r="2.7"/>
	<circle class="st5" cx="180" cy="841.1" r="2.3"/>
	<circle class="st5" cx="176.6" cy="890.5" r="1.5"/>
	<circle class="st5" cx="93.1" cy="955.3" r="2.2"/>
	<circle class="st5" cx="147.3" cy="879" r="1.5"/>
	<circle class="st5" cx="70.1" cy="896.8" r="0.5"/>
	<circle class="st5" cx="116.5" cy="918.5" r="1.7"/>
	<circle class="st5" cx="311" cy="844.8" r="1.7"/>
	<circle class="st5" cx="285.3" cy="878.8" r="1.5"/>
	<circle class="st5" cx="200" cy="962.1" r="1.5"/>
	<circle class="st5" cx="240.5" cy="904.3" r="1.2"/>
	<circle class="st5" cx="272.6" cy="836" r="1.2"/>
	<circle class="st5" cx="310.5" cy="924" r="1.3"/>
	<circle class="st5" cx="270.6" cy="928.6" r="1.3"/>
	<circle class="st5" cx="313.8" cy="961.3" r="1.3"/>
	<circle class="st5" cx="336.3" cy="948.3" r="0.8"/>
	<circle class="st5" cx="444.8" cy="838.3" r="1.3"/>
	<circle class="st5" cx="452" cy="854.5" r="1.5"/>
	<circle class="st5" cx="447.3" cy="873.6" r="1"/>
	<circle class="st5" cx="414.6" cy="928.5" r="1.5"/>
	<circle class="st5" cx="537.5" cy="901" r="4.2"/>
	<circle class="st5" cx="511.1" cy="845.6" r="1.3"/>
	<circle class="st5" cx="481.8" cy="844.6" r="1.8"/>
	<circle class="st5" cx="509.6" cy="808.3" r="1.3"/>
	<circle class="st5" cx="579.5" cy="880.1" r="1.5"/>
	<circle class="st5" cx="615.1" cy="903" r="1.5"/>
	<circle class="st5" cx="617.5" cy="892.8" r="0.8"/>
	<circle class="st5" cx="627.6" cy="852.5" r="1.2"/>
	<circle class="st5" cx="787.6" cy="804.1" r="2.3"/>
	<circle class="st5" cx="836.8" cy="804.8" r="1.8"/>
	<circle class="st5" cx="779.5" cy="842.3" r="2"/>
	<circle class="st5" cx="761.6" cy="856.3" r="1.3"/>
	<circle class="st5" cx="851.6" cy="878" r="1.7"/>
	<circle class="st5" cx="905.3" cy="862.5" r="1.3"/>
	<circle class="st5" cx="941.8" cy="914.1" r="1.7"/>
	<circle class="st5" cx="737.8" cy="911.5" r="1.8"/>
	<circle class="st5" cx="822" cy="934.5" r="2.2"/>
	<circle class="st5" cx="631.8" cy="966.8" r="2.2"/>
	<circle class="st5" cx="507.1" cy="949.6" r="1.8"/>
	<circle class="st5" cx="513.8" cy="768.6" r="1"/>
	<circle class="st5" cx="512.5" cy="21.9" r="1.5"/>
	<circle class="st5" cx="553.7" cy="63.6" r="2.5"/>
	<circle class="st5" cx="595.5" cy="57.9" r="2.8"/>
	<circle class="st5" cx="606.5" cy="90.9" r="2.2"/>
	<circle class="st5" cx="618.5" cy="103.6" r="2.2"/>
	<circle class="st5" cx="664" cy="75.9" r="2.2"/>
	<circle class="st5" cx="630.2" cy="31.1" r="1"/>
	<circle class="st5" cx="719.5" cy="82.6" r="1.5"/>
	<circle class="st5" cx="753.7" cy="72.4" r="1.5"/>
	<circle class="st5" cx="834" cy="86.4" r="1.8"/>
	<circle class="st5" cx="908.7" cy="35.1" r="3.2"/>
	<circle class="st5" cx="778.2" cy="-12.6" r="2"/>
	<circle class="st5" cx="870.5" cy="53.4" r="0.8"/>
	<circle class="st5" cx="873" cy="80.6" r="1.2"/>
	<circle class="st5" cx="828.2" cy="99.1" r="1"/>
	<circle class="st5" cx="807.5" cy="84.4" r="2"/>
	<circle class="st5" cx="956.5" cy="44.6" r="1.5"/>
	<circle class="st5" cx="979.5" cy="30.1" r="2"/>
	<circle class="st5" cx="376.7" cy="67.1" r="1.2"/>
	<circle class="st5" cx="250.7" cy="132.9" r="1.2"/>
	<circle class="st5" cx="241.7" cy="62.6" r="2"/>
	<circle class="st5" cx="134.7" cy="49.6" r="1.2"/>
	<circle class="st5" cx="167.5" cy="68.6" r="1.2"/>
	<circle class="st5" cx="12.7" cy="82.1" r="1.5"/>
	<circle class="st5" cx="141.5" cy="-4.6" r="1.2"/>
	<circle class="st5" cx="202.7" cy="30.1" r="1.2"/>
	<circle class="st5" cx="216.7" cy="35.9" r="1.5"/>
	<circle class="st5" cx="335.2" cy="29.6" r="1.5"/>
	<circle class="st5" cx="352.2" cy="26.4" r="1.2"/>
	<circle class="st5" cx="326.2" cy="76.4" r="1.5"/>
	<circle class="st5" cx="376" cy="79.4" r="1.2"/>
	<circle class="st5" cx="542.2" cy="74.9" r="1.8"/>
	<circle class="st5" cx="616.5" cy="162.4" r="1"/>
	<circle class="st5" cx="612.5" cy="181.9" r="1.5"/>
	<circle class="st5" cx="390" cy="325.4" r="1.5"/>
	<g class="st2">
		
			<image style="overflow:visible;" width="2234" height="873" xlink:href="933B20A2DEA78BE9.png"  transform="matrix(0.24 0 0 0.24 326.6157 463.4851)">
		</image>
	</g>
	<g class="st2">
		<g>
			<path class="st6" d="M232.7,584.3l-62,32.7l20.1-82.8l7.6,4.2l132.9,75.3c0.2,0.1,0.3,0.1,0.5,0.1c0.2,0,0.4-0.1,0.6-0.2
				c0.3-0.3,0.5-0.7,0.4-1.1l-43.4-155.7l44.9-9.5c-1,0.9-1.9,1.8-2.7,2.8c-3.9,4.7-5.9,10.7-5.9,17.7v60.7c0,0.3,0.1,0.6,0.4,0.8
				c0.2,0.2,0.4,0.2,0.6,0.2c0.1,0,0.1,0,0.2,0l32.6-6.4v14.2l-32.9,5.8c-0.5,0.1-0.8,0.5-0.8,1v30.5c0,0.3,0.1,0.6,0.4,0.8
				c0.2,0.2,0.4,0.2,0.7,0.2c0.1,0,0.1,0,0.2,0l43.7-7.7c6.8-1.2,12.2-4.2,16.2-8.9c3.9-4.7,5.9-10.6,5.9-17.6v-2.7l4.4-0.5l0,0
				c0,7.4,2.3,13.1,6.7,16.9c3.3,2.8,7.6,4.3,12.5,4.3c1.7,0,3.4-0.2,5.3-0.5l52.5-9.3c0.5-0.1,0.8-0.5,0.8-1v-97.1l23.1-4.1v73
				c0,7.4,2.3,13.1,6.7,16.9c3.3,2.8,7.6,4.3,12.5,4.3c1.6,0,3.4-0.2,5.2-0.5l20.1-3.6c7.1-1.3,12.7-4.2,16.6-8.8
				c3.4-4,5.3-9.2,5.8-15.3c0.6,5.6,2.4,9.7,5.5,12.6c2.9,2.7,6.9,4.1,11.8,4.1c1.8,0,3.7-0.2,5.7-0.5l43-7.6c0.5-0.1,0.8-0.5,0.8-1
				v-18.6c0.7,5.2,2.5,9.2,5.4,11.8c2.9,2.7,6.9,4.1,11.8,4.1c1.8,0,3.7-0.2,5.7-0.5l43.8-7.7v-0.4l44.6-7.9
				c6.8-1.2,12.2-4.2,16.2-8.9c3-3.6,4.9-7.9,5.6-12.8v17.1c0,0.3,0.1,0.6,0.4,0.8c0.2,0.2,0.4,0.2,0.7,0.2c0.1,0,0.1,0,0.2,0
				l31.2-5.5c0.5-0.1,0.8-0.5,0.8-1v-97.1l0.5-0.1v96.8c0,0.3,0.1,0.6,0.4,0.8c0.2,0.2,0.4,0.2,0.7,0.2c0.1,0,0.1,0,0.2,0l31.2-5.5
				c0.5-0.1,0.8-0.5,0.8-1V381c0-8.1-1.9-13.8-5.7-17.4c-3-2.8-7-4.2-11.9-4.2c-1.7,0-3.6,0.2-5.5,0.5l-10.7,1.9v-12.5l70.6-18.2
				c2.2-0.6,3-2.5,2.8-4.1c-0.2-2-1.8-3.3-3.7-3.3c-0.2,0-0.4,0-0.6,0l-69.1,9.8v-23.4c0-0.4-0.2-0.7-0.5-0.9
				c-0.1-0.1-0.3-0.1-0.5-0.1c-0.2,0-0.4,0.1-0.6,0.2l-31.2,21.2c-0.3,0.2-0.4,0.5-0.4,0.8v8l-133,23.5v-23.3c0-0.4-0.2-0.7-0.5-0.9
				c-0.2-0.1-0.3-0.1-0.5-0.1c-0.2,0-0.4,0.1-0.6,0.2L599,359.8c-0.3,0.2-0.4,0.5-0.4,0.8v8l-168.2,29.7V375c0-0.4-0.2-0.7-0.5-0.9
				c-0.2-0.1-0.3-0.1-0.5-0.1c-0.2,0-0.4,0.1-0.6,0.2l-31.2,21.2c-0.3,0.2-0.4,0.5-0.4,0.8v8l-116.7,20.6l-49.7-178.3
				c-0.1-0.4-0.5-0.7-1-0.7h0c-0.5,0-0.9,0.3-1,0.8l-14.6,57.8l-0.9,1.5c-0.1,0.2-0.2,0.5-0.1,0.8l0.2,0.9l-34.2,135.2L64.8,462.8
				c-0.4,0.1-0.8,0.4-0.8,0.8c-0.1,0.4,0.1,0.8,0.5,1.1l95.7,52.8l-42.9,171c-0.1,0.4,0.1,0.9,0.5,1.1c0.2,0.1,0.3,0.1,0.5,0.1
				c0.2,0,0.5-0.1,0.7-0.3L233.8,586 M169.2,481.9l-4.9-2.7l5.8-1L169.2,481.9z M230.2,371.1l15.8,59.7l-31.6,5.6L230.2,371.1z
				 M199.4,498.5l6.5-26.7l48.8-8.6l20.4,76.9L199.4,498.5z"/>
			<g>
				<g>
					<path class="st7" d="M541.8,413.8l-20.5,3.6c-5.2,0.9-9.3,3.1-12.2,6.7c-2.9,3.5-4.3,8-4.3,13.4v82.9c0,5.4,1.4,9.3,4.3,11.7
						c2.9,2.4,6.9,3.2,12.2,2.3l20.1-3.6c5.6-1,9.8-3.2,12.6-6.5c2.8-3.4,4.3-7.9,4.3-13.6V428c0-5.4-1.4-9.3-4.3-11.8
						C551.1,413.7,547,412.9,541.8,413.8z M538.6,512.5l-14.1,2.5v-79.1l14.1-2.5V512.5z"/>
					<path class="st7" d="M357.4,446.3l-8.5,1.5c-5.2,0.9-9.3,3.1-12.2,6.7c-2.9,3.5-4.3,8-4.3,13.4v53.7l33.8-6.7v28.1l-9.4,1.7
						l-4.6,0.8l-19.7,3.5v18.8l16.5-2.9l7.9-1.4l12.6-2.2c5.2-0.9,9.3-3.1,12.2-6.6c2.9-3.5,4.3-7.9,4.3-13.3v-49l-33.8,6.2v-32.3
						l5.3-0.9l8.8-1.5l19.7-3.5v-1.2v-0.9v-16.9l-16.5,2.9L357.4,446.3z"/>
					<path class="st7" d="M729.9,380.3l-8.5,1.5c-5.2,0.9-9.3,3.1-12.2,6.7c-2.9,3.5-4.3,8-4.3,13.4v53.7l33.8-6.7v28.1l-9.4,1.7
						l-4.6,0.8l-19.7,3.5v18.8l16.5-2.9l7.9-1.4l12.6-2.2c5.2-0.9,9.3-3.1,12.2-6.6s4.3-7.9,4.3-13.3v-49l-33.8,6.2v-32.3l5.3-0.9
						l8.8-1.5l19.7-3.5V393v-0.9v-16.9l-16.5,2.9L729.9,380.3z"/>
					<polygon class="st7" points="448.5,547.3 468.2,543.8 468.2,445.8 498.1,440.6 498.1,421.5 448.5,430.3 					"/>
					<path class="st7" d="M653.5,511.1l4.1-0.7l2.2-0.4l12.2-2.2l12.8-2.3l6.9-1.2v-99.9c0-5.4-1.4-9.3-4.3-11.8
						c-2.9-2.5-6.9-3.3-12.2-2.4l-20.5,3.6c-5.2,0.9-9.3,3.1-12.2,6.7c-2.9,3.5-4.3,8-4.3,13.4v19.7l19.4-13.3v-8.8l14.8-2.6v17.8
						l-34.1,23.1v47c0,6.1,1.2,10.2,3.6,12.4C644.1,511.5,648,512.1,653.5,511.1z M657.6,460.5l14.8-9.9v38.7l-14.8,2.6V460.5z"/>
					<path class="st7" d="M160.5,630L186.3,524l15.4,8.5L322.5,601l-41.6-149.2l0,0l576-121.8L275.5,432.5L230,269.2l-9.6,37.8
						l-0.2,0.2l0.1,0.2l-35.7,141.1l-72,12.7L82,466.6l86,47.4l-39.6,157.8l0,0l0,0v0v0l66.6-60L160.5,630z M285.6,553.8l-72-39.7
						l-22-12.1l8.7-36l29.7-5.2l29.5-5.2L285.6,553.8z M229.9,343.5l24.5,92.7l-24.4,4.3l-24.6,4.3L229.9,343.5z M144.2,475.9
						l35-6.2l-5.7,22.4L144.2,475.9z"/>
					<path class="st7" d="M423.6,461.4l16.4-11.3V430l-16.4,11.4v-16l-19.7,4.2v25.3l-10.7,7.4v20l10.7-7.4v63.4
						c0,5.4,1.4,9.3,4.3,11.7c2.9,2.4,7,3.2,12.2,2.3l21.3-3.8v-18.8l-18.1,3.2V461.4z"/>
					<g>
						<polygon class="st7" points="625,367 625,350.3 605.3,363.7 605.3,370.5 						"/>
						<polygon class="st7" points="423.6,402.5 423.6,385.9 403.9,399.2 403.9,406 						"/>
						<path class="st7" d="M605.3,387v15.6l-12.2,2.2h0l-6.3,1.1c-5.4,1-9.3,3-11.7,6.1c-2.4,3.1-3.6,7.7-3.6,13.7v82.9
							c0,6.1,1.2,10.2,3.6,12.4c2.4,2.2,6.3,2.8,11.7,1.8l4.4-0.8l1.8-0.3l12.2-2.2l3.3-0.6l16.4-2.9V382.9L605.3,387z M605.3,500.8
							l-14.1,2.5v-78.5l14.1-2.5V500.8z"/>
					</g>
					<g>
						<polygon class="st7" points="791.3,337.7 791.3,321 771.6,334.4 771.6,341.2 						"/>
						<path class="st7" d="M809.9,366.6l-1.9,0.3l-4.7,0.8l-12.1,2.1v-22.1l-19.7,4.2v138.4l19.7-3.5v-98l14.1-2.5v98l19.7-3.5V381
							c0-6.1-1.2-10.2-3.6-12.5C819.1,366.3,815.3,365.6,809.9,366.6z"/>
					</g>
				</g>
			</g>
		</g>
		<path class="st8" d="M597.5,392.8"/>
		<g>
			<path class="st8" d="M598.5,391.5l1,5.4c0.1,0.5-0.2,0.9-0.7,1l0,0l-0.2,0l-11.9,2.1c-3.9,0.6-7.7,1.7-11,3.8
				c-3.3,2-5.9,4.9-7.5,8.4c-1.6,3.5-2.2,7.4-2.4,11.3c0,0.6-0.5,1.1-1.1,1.1c-0.5,0-1-0.4-1-0.9c-0.4-2.8-1.3-5.6-2.8-8
				c-1.5-2.4-3.6-4.4-6-5.7c-2.4-1.4-5.2-2-8.1-2.2c-1.4-0.1-2.8,0-4.3,0.2c-1.4,0.2-2.9,0.5-4.3,0.7l-17.6,3.1
				c-2.9,0.5-5.6,1.3-8.2,2.6c-2.5,1.3-4.8,3-6.8,5.1l0,0c-0.5,0.5-1.3,0.5-1.8,0c-0.2-0.2-0.4-0.5-0.4-0.9l0,0c0-1.3-0.1-2.7-0.1-4
				l0-0.1l0,0c0,0,0,0,0,0.1c0,0,0,0.1,0.1,0.1c0,0,0.1,0,0.1,0.1c0,0,0,0,0.1,0c0,0,0,0,0,0c0,0-0.1,0-0.1,0l-2,0.3l-7.9,1.2
				l-15.7,2.4l-31.5,4.8l31.2-6.2l15.6-3.1l7.8-1.5l2-0.4l0.2,0l0.3,0c0.2,0,0.4,0,0.6,0c0.4,0.1,0.7,0.2,1,0.5
				c0.3,0.2,0.5,0.6,0.7,0.9c0.1,0.2,0.1,0.4,0.1,0.5c0,0.1,0,0.2,0,0.3l0,0.1c0,1.3,0,2.7-0.1,4l-2.1-0.8l0,0
				c2.1-2.3,4.7-4.2,7.5-5.6c2.8-1.4,5.8-2.3,8.8-2.8l17.6-3.1c1.5-0.2,2.9-0.5,4.5-0.7c1.5-0.2,3.1-0.3,4.7-0.2
				c3.1,0.2,6.3,0.9,9.1,2.5c2.8,1.6,5.1,3.8,6.8,6.5c1.7,2.7,2.6,5.8,3,8.8l-2.2,0.1c0.2-4.1,0.9-8.3,2.6-12.2
				c1.7-3.9,4.7-7.2,8.4-9.3c3.6-2.2,7.7-3.4,11.7-4l11.9-2.1l-0.8,1L598.5,391.5z"/>
		</g>
		<g>
			<path class="st8" d="M764.8,356.4l1,10.9c0,0.5-0.3,0.9-0.7,1l-0.1,0l-40.3,7.1c-1.7,0.3-3.4,0.6-5,0.9c-1.6,0.3-3.2,0.8-4.8,1.3
				c-3.1,1.1-5.9,2.9-8.3,5.2c-2.4,2.3-4.2,5-5.5,8c-1.2,3-1.9,6.3-2,9.6c0,0.6-0.5,1-1.1,1c-0.5,0-0.9-0.4-1-0.9
				c-0.5-3.5-1.6-6.9-3.7-9.6c-2.1-2.7-5-4.8-8.3-5.8c-3.3-1-6.9-1.1-10.4-0.5l-10.7,1.9l-10.7,1.9c-3.5,0.7-6.8,1.8-9.8,3.7
				c-2.9,1.9-5.4,4.4-7.3,7.4c-1.9,3-3,6.3-3.5,9.8l0,0l0,0.1c-0.1,0.6-0.6,0.9-1.2,0.8c-0.5-0.1-0.9-0.5-0.8-1l1-24.7l1,24.7
				l-2-0.1l0,0c0.5-3.7,1.8-7.4,3.8-10.6c2-3.2,4.7-6,7.9-8c3.2-2.1,6.8-3.3,10.5-4l10.8-1.9l10.8-1.9c3.7-0.6,7.6-0.6,11.3,0.6
				c3.7,1.1,7,3.4,9.3,6.5c2.3,3.1,3.6,6.8,4.1,10.6l-2,0.1c0.1-3.5,0.8-7,2.2-10.3c1.4-3.3,3.4-6.3,6-8.7c2.6-2.5,5.7-4.4,9-5.6
				c1.7-0.6,3.4-1.1,5.1-1.4c1.7-0.3,3.4-0.6,5.1-0.9l40.3-7.1l-0.8,1L764.8,356.4z"/>
		</g>
		<path class="st9" d="M230.2,371.1l15.8,59.7l-31.6,5.6L230.2,371.1z M199.4,498.5l6.5-26.7l48.8-8.6l20.4,76.9L199.4,498.5z"/>
		<polygon class="st10" points="169.2,481.9 164.3,479.2 170.1,478.2 		"/>
		<g>
			<path class="st8" d="M867.2,323.7l-69,11.1c-0.7,0.1-1.3-0.3-1.4-1c0-0.1,0-0.1,0-0.2l0,0v-18.1v-4.5v-0.6v-0.1l0-0.1l0,0
				c0,0,0,0,0,0.1c0,0.1,0.1,0.1,0.2,0.2c0,0,0.1,0,0.1,0l0,0l-0.1,0.1l-0.2,0.2l-0.9,0.6l-7.5,5.1l-15,10.1l-7.5,5.1
				c-0.1,0.1,0,0,0,0c0,0,0,0,0-0.1c0,0,0,0,0-0.1c0,0,0-0.1,0,0v1.1v2.3v4.5c0,0.6-0.4,1.1-1,1.2L632,364c-0.7,0.1-1.3-0.3-1.5-1
				c0-0.1,0-0.1,0-0.2v-18.1v-4.5c0-0.3,0-0.9,0-0.7c0,0.1,0.1,0.1,0.2,0.1c0,0,0.1,0,0.1,0c0,0,0,0,0,0l-0.1,0.1l-0.2,0.2l-0.9,0.6
				l-7.5,5.1l-14.9,10.1l-7.5,5.1c-0.1,0,0,0,0-0.1c0,0,0,0,0-0.1c0,0,0-0.1,0,0v1.1v2.3v4.5c0,0.6-0.4,1.1-1,1.2l-168.2,29.7
				c-0.7,0.1-1.3-0.3-1.5-1c0-0.1,0-0.1,0-0.2v-18.1v-4.5c0-0.3,0-0.9,0-0.7c0,0.1,0.1,0.1,0.2,0.1c0,0,0.1,0,0.1,0c0,0,0,0,0,0
				l-0.1,0.1l-0.2,0.2l-0.9,0.6l-7.5,5.1l-14.9,10.1l-7.5,5.1c-0.1,0.1,0,0,0,0c0,0,0,0,0-0.1c0,0,0,0,0-0.1c0,0,0-0.1,0,0v1.1v2.3
				v4.5c0,0.6-0.4,1.1-1,1.2L280.6,426c-0.6,0.1-1.3-0.3-1.4-0.9L246,306l-16.4-59.1c0.1,0.1,0.3,0.1,0.4,0c0.1-0.2-0.1,0.3-0.1,0.6
				l-0.2,0.9l-0.9,3.7l-1.9,7.5l-3.8,15l-7.6,30c0,0.1-0.1,0.2-0.1,0.3l-0.9,1.5c0,0,0-0.1,0-0.1l0.2,0.8c0.1,0.2,0.1,0.4,0,0.6
				l-34.2,135.2c-0.1,0.5-0.5,0.8-1,0.9L67.1,463.6l-1.8,0.3L65,464c0,0,0.1,0,0.1,0c0.1,0,0.1-0.1,0.1-0.2c0-0.1,0-0.1-0.1-0.2
				c0,0,0,0,0,0l0.2,0.1l0.4,0.2l1.6,0.9l6.2,3.4l12.5,6.9l25,13.8l49.9,27.5c0.5,0.3,0.7,0.9,0.6,1.4l-40.6,161.7l-1.3,5.1L119,687
				l-0.3,1.3l-0.1,0.3l0,0.1l0,0c0-0.1,0-0.1,0-0.2c-0.1-0.1-0.2-0.1-0.3-0.1c-0.3,0.2,0.3-0.3,0.5-0.5l1.9-1.7l3.9-3.5l15.4-14
				c10.3-9.3,20.6-18.6,31-27.9c20.8-18.5,41.6-36.8,62.8-54.8c-20.1,19.2-40.5,38-61.1,56.8c-10.3,9.4-20.6,18.6-30.9,27.9
				l-15.5,13.9l-3.9,3.5l-1.9,1.7l-0.5,0.4c-0.1,0.1-0.6,0.5-1,0.6c-0.9,0.3-2-0.1-2.6-0.9c-0.3-0.4-0.4-0.9-0.4-1.4
				c0-0.1,0-0.2,0.1-0.4l0-0.2l0.1-0.3l0.3-1.3l0.6-2.5l1.3-5.1L159,517.1l0.6,1.4L109.7,491l-25-13.8l-12.5-6.9l-6.2-3.4l-1.6-0.9
				l-0.4-0.2l-0.2-0.1c-0.1-0.1-0.3-0.2-0.4-0.3c-0.5-0.4-0.8-1.1-0.8-1.8c0-0.7,0.3-1.3,0.8-1.7c0.3-0.2,0.6-0.4,0.9-0.4
				c0.2,0,0.2,0,0.3-0.1l0.2,0l1.8-0.3l112.2-19.8l-1,0.9l34.2-135.2l0,0.6l-0.2-0.8c-0.2-0.5-0.1-1.3,0.3-1.8l0.9-1.5L213,304
				l7.6-30l3.8-15l1.9-7.5l0.9-3.7l0.2-0.9l0.1-0.5c0-0.1,0.1-0.5,0.3-0.8c0.4-0.6,1.1-1,1.8-1.1c0.7-0.1,1.5,0.3,1.9,0.8
				c0.1,0.1,0.2,0.3,0.3,0.5c0.1,0.1,0.2,0.4,0.2,0.4l0.1,0.5l0.3,0.9l0.5,1.9l1,3.7l2.1,7.4l4.1,14.9l8.3,29.8l33.2,119.1l-1.4-0.9
				l116.7-20.6l-1,1.2v-4.5v-2.3v-1.1c0,0,0-0.3,0-0.5c0-0.2,0.1-0.4,0.2-0.6c0.1-0.2,0.2-0.4,0.4-0.5c0.1-0.1,0.4-0.3,0.4-0.4
				l7.5-5.1l14.9-10.1l7.5-5.1l0.9-0.6l0.2-0.2l0.1-0.1c0,0,0.2-0.1,0.2-0.2c0.4-0.2,0.8-0.3,1.2-0.2c0.8,0.1,1.6,0.6,1.9,1.4
				c0.2,0.4,0.2,0.9,0.2,1v0.6v4.5v18.1l-1.5-1.2l168.2-29.7l-1,1.2v-4.5v-2.3v-1.1c0,0,0-0.3,0-0.5c0-0.2,0.1-0.4,0.2-0.6
				c0.2-0.4,0.5-0.7,0.8-0.9l7.5-5.1l14.9-10.1l7.5-5.1l0.9-0.6l0.2-0.2l0.1-0.1c0,0,0.2-0.1,0.2-0.2c0.4-0.2,0.8-0.3,1.2-0.2
				c0.8,0.1,1.6,0.6,1.9,1.4c0.2,0.4,0.2,0.9,0.2,1v0.6v4.5v18.1l-1.5-1.2l133-23.5l-1,1.2v-4.5v-2.3v-1.1c0,0,0-0.3,0-0.5
				c0-0.2,0.1-0.4,0.2-0.6c0.1-0.2,0.2-0.4,0.4-0.5c0.1-0.1,0.4-0.3,0.4-0.4l7.5-5.1l14.9-10.1l7.5-5.1l0.9-0.6l0.2-0.2l0.1-0.1
				c0.1-0.1,0.2-0.1,0.3-0.2c0.4-0.2,0.8-0.3,1.2-0.2c0.8,0.1,1.6,0.7,1.9,1.5c0.1,0.2,0.1,0.4,0.1,0.6l0,0.2v0.1v0.6v4.5v18.1
				l-1.4-1.2L867.2,323.7z"/>
		</g>
		<g>
			<path class="st8" d="M232.7,584.3l-61.5,33.8c-0.6,0.3-1.4,0.1-1.7-0.5c-0.2-0.3-0.2-0.6-0.1-0.9l0,0l0,0l20.1-82.8
				c0.2-0.7,0.8-1.1,1.5-0.9c0.1,0,0.2,0.1,0.3,0.1l0,0l8.9,4.9l8.8,5l17.7,10l35.4,20l35.4,20l17.7,10l8.8,5l4.4,2.5l2.2,1.3
				l1.1,0.6c-0.1-0.1-0.2,0-0.3,0c0,0-0.1,0.1-0.1,0.1c0,0,0,0.1,0,0.1l0,0l0-0.2l-0.3-1.2l-0.7-2.4l-1.4-4.9l-2.7-9.8l-5.5-19.6
				L310,535.6l-21.8-78.4c-0.2-0.7,0.2-1.4,0.9-1.5l0.1,0l44.9-9.5c0.7-0.1,1.3,0.3,1.5,1c0.1,0.5-0.1,0.9-0.4,1.2
				c-3.5,3.1-6,7.3-7.2,11.8c-0.6,2.3-0.9,4.6-0.9,7l0,7.4v29.6V519v7.4v1.9l0,0.2c0,0,0,0,0-0.1c0,0,0-0.1,0-0.1
				c0-0.1-0.1-0.1-0.2-0.1l3.5-0.7l29.1-5.7c0.7-0.1,1.3,0.3,1.5,1c0,0.1,0,0.2,0,0.2v14.2c0,0.6-0.4,1.1-1,1.2l-18.7,3.3l-9.4,1.6
				l-4.7,0.8c-0.3,0.1-0.1,0-0.1,0c0,0,0.1-0.1,0.1-0.1c0,0,0,0,0-0.1c0,0,0,0,0,0v0.1v0.6v2.4v19v4.7v2.4v1.2v0.1c0,0,0,0,0,0l0,0
				c0,0,0,0,0-0.1c0,0-0.1-0.1-0.1-0.1c0,0-0.1,0-0.1,0l0,0l0.1,0l0.1,0l0.3-0.1l1.2-0.2l2.3-0.4l4.7-0.8l18.7-3.3l9.4-1.6l4.7-0.8
				l2.3-0.4c0.8-0.1,1.5-0.3,2.2-0.5c3-0.7,5.8-1.9,8.3-3.6c2.5-1.7,4.7-3.8,6.3-6.3c1.7-2.5,2.8-5.3,3.5-8.3c0.3-1.5,0.5-3,0.6-4.5
				c0.1-1.5,0.1-3.1,0.1-4.7l0,0c0-0.6,0.4-1.1,1-1.2l4.4-0.8l0,0c0.7-0.1,1.3,0.3,1.4,1c0,0.1,0,0.2,0,0.2c0,3.8,0.6,7.6,2.2,10.9
				c1.6,3.3,4.4,6,7.7,7.5c3.3,1.5,7.2,1.9,10.9,1.5c1.9-0.2,3.8-0.6,5.8-0.9l5.8-1l23.3-4.1l11.7-2.1l5.8-1l1.5-0.3l0.7-0.1
				c0,0-0.1,0-0.1,0.1c0,0,0,0,0,0.1l0,0c0,0,0,0.1,0,0v-0.7v-1.5v-94.8c0-0.6,0.4-1.1,1-1.2l23.1-4.1c0.7-0.1,1.3,0.3,1.5,1
				c0,0.1,0,0.1,0,0.2v41.7V510v10.4c0,3.3,0.5,6.7,1.7,9.7c0.6,1.5,1.5,2.9,2.5,4.2c1,1.2,2.2,2.3,3.6,3.2c2.7,1.8,5.9,2.7,9.2,2.8
				c1.6,0.1,3.3,0,5-0.3c1.6-0.3,3.4-0.6,5.1-0.9l10.3-1.8l5.1-0.9c1.7-0.3,3.3-0.6,4.9-1.1c3.2-1,6.2-2.5,8.8-4.6
				c2.6-2.1,4.6-4.7,6-7.7c1.4-3,2.1-6.3,2.4-9.6c0-0.7,0.6-1.2,1.3-1.2c0.6,0,1.1,0.5,1.2,1.1c0.4,3.8,1.5,7.6,3.9,10.4
				c2.3,2.9,5.8,4.5,9.6,4.9c1.9,0.2,3.8,0.2,5.7,0c1.9-0.2,3.9-0.6,5.8-1l11.8-2.1l23.7-4.2l3-0.5l0.7-0.1l0.3,0c0,0-0.1,0-0.1,0
				c0,0-0.1,0.1-0.1,0.1l0,0l0-0.2v-0.4v-6v-12c0-0.7,0.6-1.3,1.3-1.3c0.6,0,1.2,0.5,1.2,1.1c0.4,3,1.2,6,2.8,8.5
				c1.6,2.5,3.9,4.3,6.7,5.3c2.8,1,5.8,1.2,8.9,0.9c1.5-0.1,3-0.4,4.6-0.7l4.7-0.8l37.6-6.6l-1,1.2v-0.4c0-0.6,0.4-1.1,1-1.2
				l38.6-6.8l4.8-0.8c1.6-0.3,3.1-0.6,4.6-1c3-0.9,5.8-2.2,8.3-4.1c2.5-1.9,4.5-4.3,6.1-6.9c1.5-2.7,2.5-5.7,2.9-8.8
				c0.1-0.7,0.7-1.2,1.4-1.1c0.6,0.1,1.1,0.6,1.1,1.2V495v1.9v0.2c0,0.1,0,0.1,0,0l0,0c0,0,0-0.1,0-0.1c0-0.1-0.1-0.1-0.2-0.1
				l3.4-0.6l7.4-1.3l29.4-5.2l14.7-2.6l7.4-1.3l1.8-0.3l0.8-0.1c-0.1,0-0.1,0.1-0.2,0.1c0,0,0,0,0,0.1c0,0,0,0,0,0v-0.1v-0.5v-0.9
				v-1.9v-29.9v-59.8v-7.5v-3.7c0-1.2,0-2.4-0.1-3.6c-0.2-2.4-0.6-4.8-1.3-7c-0.7-2.2-1.9-4.3-3.5-5.9c-1.6-1.6-3.6-2.8-5.8-3.5
				c-2.2-0.7-4.6-0.9-7-0.7c-1.2,0.1-2.4,0.2-3.6,0.4l-3.7,0.6l-7.4,1.3l0,0c-0.7,0.1-1.3-0.3-1.5-1c0-0.1,0-0.1,0-0.2v-12.5l0,0v0
				c0-0.6,0.4-1.1,0.9-1.2l70.9-17l-70.3,19.4l0.9-1.2v0v12.5l-1.5-1.2l0,0l7.4-1.3l3.7-0.6c1.3-0.2,2.6-0.4,3.8-0.4
				c2.6-0.1,5.3,0.1,7.8,0.8c2.6,0.8,5,2.2,6.9,4.1c1.9,1.9,3.2,4.3,4.1,6.8c0.8,2.5,1.3,5.1,1.4,7.6c0.1,1.3,0.1,2.6,0.1,3.8v3.7
				v7.5v59.8v29.9v1.9v0.9v0.5v0.1c0,0.1,0,0.2,0,0.3c0,0.2-0.1,0.3-0.1,0.5c-0.2,0.7-0.8,1.2-1.4,1.4c-0.1,0-0.2,0-0.3,0.1l-0.1,0
				l-0.2,0l-0.5,0.1l-1.8,0.3l-7.4,1.3l-14.7,2.6l-29.4,5.2l-7.4,1.3l-1.8,0.3l-0.9,0.2l-0.5,0.1l-0.2,0c-0.1,0-0.3,0-0.5,0
				c-0.7,0-1.4-0.3-1.8-0.9c-0.2-0.3-0.3-0.6-0.4-0.9c0-0.1,0-0.2,0-0.3l0-0.2v-0.2V495v-14.9l2.5,0.2c-0.5,3.4-1.5,6.7-3.2,9.7
				c-1.7,3-4,5.6-6.7,7.7c-2.7,2.1-5.9,3.6-9.1,4.5c-1.6,0.5-3.3,0.8-4.9,1.1l-4.8,0.8l-38.6,6.8l1-1.2v0.4c0,0.6-0.4,1.1-1,1.2
				l-37.6,6.6l-4.7,0.8c-1.5,0.3-3.2,0.6-4.8,0.7c-3.3,0.3-6.7,0.1-9.9-1.1c-3.2-1.1-6.1-3.4-7.9-6.3c-1.9-2.9-2.7-6.2-3.2-9.5
				l2.5-0.2v12v6v0.4l0,0.2c0,0.1,0,0.3-0.1,0.4c-0.1,0.5-0.4,1-0.9,1.4c-0.2,0.2-0.5,0.3-0.8,0.3l-0.3,0.1l-0.2,0l-0.7,0.1l-3,0.5
				l-23.7,4.2l-11.8,2.1c-2,0.3-3.9,0.7-6,1c-2.1,0.2-4.2,0.3-6.3,0c-2.1-0.2-4.2-0.8-6.2-1.8c-1.9-1-3.7-2.4-5.1-4
				c-2.8-3.4-3.9-7.7-4.4-11.8l2.5-0.1c-0.3,3.6-1,7.2-2.6,10.5c-1.5,3.3-3.8,6.3-6.7,8.6c-2.8,2.3-6.2,4-9.6,5
				c-1.7,0.5-3.5,0.9-5.2,1.2l-5.1,0.9l-10.3,1.8c-1.7,0.3-3.4,0.6-5.2,0.9c-1.8,0.3-3.6,0.4-5.4,0.3c-3.6-0.1-7.4-1.2-10.5-3.2
				c-1.6-1-2.9-2.3-4.1-3.7c-1.2-1.4-2.1-3.1-2.8-4.8c-1.4-3.4-1.9-7.1-1.9-10.7V510v-20.8v-41.7l1.5,1.2l-23.1,4.1l1-1.2v94.8v1.5
				v0.7c0,0,0,0.2,0,0.3c0,0.1,0,0.3-0.1,0.4c-0.1,0.3-0.2,0.5-0.4,0.7c-0.3,0.4-0.9,0.7-1.4,0.8l-0.7,0.1l-1.5,0.3l-5.8,1
				l-11.7,2.1l-23.3,4.1l-5.8,1c-1.9,0.3-3.9,0.7-5.9,1c-4.1,0.4-8.4,0.1-12.3-1.7c-3.9-1.8-7.1-4.9-8.9-8.7
				c-1.9-3.8-2.5-8-2.5-12.1l1.5,1.2l-4.4,0.8l1-1.2c0,1.6,0,3.2-0.1,4.8c-0.1,1.6-0.3,3.3-0.7,4.9c-0.7,3.2-2,6.4-3.8,9.1
				c-1.9,2.8-4.2,5.2-7,7c-2.8,1.9-5.9,3.1-9.1,3.9c-0.8,0.2-1.6,0.4-2.4,0.5l-2.3,0.4l-4.7,0.8l-9.4,1.6l-18.7,3.3l-4.7,0.8
				l-2.3,0.4l-1.2,0.2l-0.3,0.1l-0.1,0l-0.1,0l-0.2,0c-0.4,0.1-0.9,0-1.3-0.2c-0.4-0.2-0.7-0.5-0.9-0.9c-0.1-0.2-0.2-0.4-0.2-0.6
				c0-0.1,0-0.2,0-0.3l0-0.2v-1.2v-2.4v-4.7v-19v-2.4v-0.6v-0.1c0-0.1,0-0.2,0-0.3c0-0.2,0.1-0.4,0.2-0.6c0.2-0.4,0.5-0.8,0.9-1
				c0.3-0.2,0.9-0.3,1-0.4l4.7-0.8l9.4-1.6l18.7-3.3l-1,1.2v-14.2l1.5,1.2l-29.1,5.7l-1.8,0.4l-0.9,0.2l-0.5,0.1
				c-0.2,0-0.2,0.1-0.6,0.1c-0.7,0.1-1.4-0.3-1.8-0.8c-0.2-0.3-0.4-0.6-0.5-0.9c0-0.2-0.1-0.3-0.1-0.5l0-0.3v-1.9V519v-14.8v-29.6
				l0-7.4c0-2.6,0.4-5.1,1-7.6c1.3-5,4.1-9.7,8-13.1l1.1,2.2l-44.9,9.5l0.9-1.6l21.8,78.4l10.9,39.2l5.5,19.6l2.7,9.8l1.4,4.9
				l0.7,2.4l0.3,1.2l0,0.2c0,0.1,0.1,0.2,0.1,0.3c0,0.2,0,0.5,0,0.7c-0.1,0.5-0.3,0.9-0.7,1.2c-0.7,0.7-1.8,0.8-2.6,0.3l-1.1-0.6
				l-2.2-1.3l-4.4-2.5l-8.8-5l-17.7-10l-35.4-20l-35.4-20l-17.7-10l-8.8-5l-8.9-4.9l0,0l1.8-0.8l-20.1,82.8l0,0l-1.8-1.4
				L232.7,584.3z"/>
		</g>
		<g>
			<g>
				<text transform="matrix(1.0154 -0.179 0 1 375.748 616.0228)" class="st11 st12 st13">CAPTURE THE COSMOS</text>
			</g>
		</g>
	</g>
</g>
</svg>
