<svg xmlns="http://www.w3.org/2000/svg" viewBox="0 0 283.46 283.46"><defs><style>.cls-1{fill:#fff;}</style></defs><title>Asset 3</title><g id="Layer_2" data-name="Layer 2"><g id="Layer_1-2" data-name="Layer 1"><path class="cls-1" d="M70.87,204.85a1,1,0,0,0-1,1v5.75H64.12a1,1,0,0,0,0,2h5.75v5.75a1,1,0,1,0,2,0V213.6h5.75a1,1,0,1,0,0-2H71.87v-5.75A1,1,0,0,0,70.87,204.85Z"/><path class="cls-1" d="M0,7.75a1,1,0,0,0,1-1V1H6.75a1,1,0,0,0,1-1H0Z"/><path class="cls-1" d="M77.62,69.87H71.87V64.12a1,1,0,1,0-2,0v5.75H64.12a1,1,0,0,0,0,2h5.75v5.75a1,1,0,0,0,2,0V71.87h5.75a1,1,0,0,0,0-2Z"/><path class="cls-1" d="M283.46,149.48V134a1,1,0,0,0-1,1v5.75h-5.75a1,1,0,0,0,0,2h5.75v5.75A1,1,0,0,0,283.46,149.48Z"/><path class="cls-1" d="M1,148.48v-5.75H6.75a1,1,0,0,0,0-2H1V135a1,1,0,0,0-1-1v15.5A1,1,0,0,0,1,148.48Z"/><path class="cls-1" d="M141.73,149.48a1,1,0,0,0,1-1v-5.75h5.75a1,1,0,0,0,0-2h-5.75V135a1,1,0,0,0-2,0v5.75H135a1,1,0,0,0,0,2h5.75v5.75A1,1,0,0,0,141.73,149.48Z"/><path class="cls-1" d="M219.35,69.87H213.6V64.12a1,1,0,0,0-2,0v5.75h-5.75a1,1,0,0,0,0,2h5.75v5.75a1,1,0,1,0,2,0V71.87h5.75a1,1,0,1,0,0-2Z"/><path class="cls-1" d="M148.48,282.46h-5.75v-5.75a1,1,0,0,0-2,0v5.75H135a1,1,0,0,0-1,1h15.5A1,1,0,0,0,148.48,282.46Z"/><path class="cls-1" d="M283.46,275.71a1,1,0,0,0-1,1v5.75h-5.75a1,1,0,0,0-1,1h7.75Z"/><path class="cls-1" d="M6.75,282.46H1v-5.75a1,1,0,0,0-1-1v7.75H7.75A1,1,0,0,0,6.75,282.46Z"/><path class="cls-1" d="M212.6,204.85a1,1,0,0,0-1,1v5.75h-5.75a1,1,0,0,0,0,2h5.75v5.75a1,1,0,0,0,2,0V213.6h5.75a1,1,0,0,0,0-2H213.6v-5.75A1,1,0,0,0,212.6,204.85Z"/><path class="cls-1" d="M134,0a1,1,0,0,0,1,1h5.75V6.75a1,1,0,0,0,2,0V1h5.75a1,1,0,0,0,1-1H134Z"/><path class="cls-1" d="M275.71,0a1,1,0,0,0,1,1h5.75V6.75a1,1,0,0,0,1,1V0Z"/></g></g></svg>